<svg xmlns="http://www.w3.org/2000/svg" width="377" height="70"><g fill="#005FA7"><path d="M53.23 37.68c.8 1.35 2.32 2.27 4.32 2.27 1.9 0 2.56-.9 2.56-1.7 0-1.5-1.9-1.88-4.3-2.77-2.47-.88-4.17-2.22-4.17-4.98 0-3.08 2.66-4.86 5.72-4.86 2.9 0 4.68 1.36 5.72 2.8l-2.54 1.94c-.6-.8-1.6-1.33-3.08-1.33-1.3 0-2.08.6-2.08 1.4 0 1.43 1.36 1.48 4.15 2.57 3.1 1.18 4.4 2.64 4.4 5.1 0 3.04-2.03 5.26-6.4 5.26-3.7 0-6-1.73-7.05-3.8l2.76-1.9zM72.17 25.9h3.38l7.1 17.2H78.6l-1.15-2.9h-7.18l-1.16 2.9h-4.04l7.1-17.2zm4.2 11.28l-2.5-6.24-2.52 6.24h5zM85.3 25.9h3.4l8.23 10.7V25.9h3.67v17.2h-3.1l-8.52-10.97V43.1h-3.67zM107.87 29.36h-4.66V25.9h13.06v3.46h-4.6V43.1h-3.8zM118.97 25.9h3.8v17.2h-3.8zM132.65 25.9h3.38l7.1 17.2h-4.04l-1.17-2.9h-7.18l-1.16 2.9h-4.05l7.1-17.2zm4.2 11.28l-2.5-6.24-2.5 6.24h5zM153 25.64c2.64 0 4.96 1.03 6.66 2.8l-2.57 2.23c-1.04-1.04-2.52-1.58-4.1-1.58-3.06 0-5.45 2.3-5.45 5.42s2.4 5.4 5.45 5.4c1.48 0 2.8-.47 3.75-1.33v-2.33h-4.52v-3.35h8.07v6.96c-1.58 2.1-4.24 3.5-7.3 3.5-5.1 0-9.25-3.73-9.25-8.86 0-5.13 4.14-8.88 9.25-8.88M172.04 25.64c5.1 0 9.17 3.92 9.17 8.9 0 5-4.06 8.9-9.16 8.9-5.1 0-9.18-3.9-9.18-8.9 0-4.98 4.1-8.9 9.18-8.9m0 14.36c3 0 5.37-2.42 5.37-5.45 0-3-2.33-5.46-5.36-5.46-3.04 0-5.38 2.43-5.38 5.45 0 3.08 2.34 5.45 5.38 5.45"/><path d="M52.47 50.06h1.8v15.98h-1.8zM58.37 50.06h1.7V63c0 1.28.36 1.8 1.44 1.8.28 0 .58 0 .83-.04v1.44c-.27.16-.68.2-1.05.2-1.15 0-2.9-.3-2.9-3.27V50.06zM64.17 54.48h1.7v7.02c0 1.93 1.07 3.14 2.86 3.14 1.84 0 3.15-1.3 3.15-3.25v-6.92h1.7v8.88c0 1 .22 1.44.87 1.44.15 0 .43-.02.6-.04v1.28c-.38.2-.72.2-1.1.2-.42 0-1-.08-1.4-.54-.24-.25-.44-.62-.54-1.15-.5.8-1.66 1.68-3.68 1.68-2.57 0-4.15-1.77-4.15-4.36v-7.4zM77.98 63c.27.86 1.2 1.73 2.9 1.73 2.15 0 2.56-1.1 2.56-1.76 0-1.26-1.08-1.7-2.9-2.4-1.83-.74-3.13-1.54-3.13-3.38 0-1.8 1.45-3.06 3.5-3.06 1.55 0 2.67.7 3.34 2l-1.38.7c-.4-.75-.98-1.14-1.95-1.14-1.02 0-1.8.52-1.8 1.5 0 1.02 1 1.5 2.52 2.07 2.23.85 3.5 1.84 3.5 3.7 0 1.65-1.3 3.35-4.23 3.35-2.14 0-3.88-.97-4.37-2.78l1.45-.55zM88.23 56.06h-1.35v-1.58h1.35v-4.43h1.7v4.43h2.68v1.58h-2.67v6.75c0 1.5.5 2 1.6 2 .32 0 .64 0 1.08-.07v1.47c-.3.14-.8.2-1.27.2-1.3 0-3.1-.47-3.1-3.6v-6.74zM95.14 54.48h1.7v1.95c.57-1.24 1.8-2.13 3.55-2.13.24 0 .54.02.7.04v1.84c-.28-.07-.67-.12-1.15-.12-1.8 0-3.12 1.3-3.12 3.26v6.72h-1.7V54.48zM102.45 60.3c0-3.73 2.48-6.16 5.78-6.16 3.2 0 5.32 2.57 5.32 5.75 0 0 0 .4-.02.73h-9.38c.1 2.55 1.7 4.17 4.13 4.17 1.67 0 2.6-.6 3.55-1.6l1.13 1.1c-1.45 1.6-3 2.04-4.68 2.04-3.44 0-5.83-2.34-5.83-5.94v-.1zm9.3-1.16c0-1.86-1.57-3.42-3.52-3.42-2.1 0-3.85 1.54-3.96 3.42h7.47zM127 50.06h1.65l6.1 10.13 6.1-10.14h1.63v15.98h-1.77V53.6l-5.95 9.76-6-9.75v12.44H127zM146.33 54.48h1.7v7.02c0 1.93 1.08 3.14 2.87 3.14 1.83 0 3.14-1.3 3.14-3.25v-6.92h1.7v8.88c0 1 .23 1.44.87 1.44.17 0 .45-.02.6-.04v1.28c-.36.2-.7.2-1.07.2-.44 0-1-.08-1.42-.54-.22-.25-.43-.62-.52-1.15-.53.8-1.67 1.68-3.7 1.68-2.56 0-4.15-1.77-4.15-4.36v-7.4zM159.6 54.48h1.7v1.95c.6-1.24 1.85-2.13 3.64-2.13 2.6 0 4.22 1.76 4.22 4.35v4.77c0 .9.1 1.22.8 1.22.14 0 .3-.02.44-.04V66c-.23.1-.5.1-.73.1-.88 0-2.2-.22-2.2-2.56v-4.52c0-1.93-1.13-3.14-2.96-3.14-1.88 0-3.2 1.3-3.2 3.25v6.9h-1.7V54.5zM172.6 51.4c0-.65.55-1.14 1.15-1.14.6 0 1.14.5 1.14 1.15 0 .67-.56 1.16-1.15 1.16-.6 0-1.15-.48-1.15-1.15m.3 3.08h1.7v9.08c0 .85.2 1.22.86 1.22.17 0 .44-.02.6-.05v1.4c-.36.16-.7.2-1.08.2-.82 0-2.08-.24-2.08-2.47v-9.38zM183.72 54.14c1.75 0 3.26.6 4.38 1.74l-1.03 1.2c-.87-.9-2.04-1.36-3.35-1.36-2.57 0-4.45 1.95-4.45 4.54 0 2.6 1.88 4.54 4.45 4.54 1.3 0 2.48-.45 3.35-1.35l1.03 1.2c-1.12 1.14-2.63 1.73-4.38 1.73-3.4 0-6.14-2.6-6.14-6.12 0-3.53 2.75-6.12 6.14-6.12"/><path d="M190.24 51.4c0-.65.55-1.14 1.15-1.14s1.13.5 1.13 1.15c0 .67-.55 1.16-1.14 1.16s-1.16-.48-1.16-1.15m.3 3.08h1.7v9.08c0 .85.2 1.22.86 1.22.16 0 .44-.02.6-.05v1.4c-.36.16-.7.2-1.07.2-.83 0-2.1-.24-2.1-2.47v-9.38zM195.95 54.48h1.7v1.72c.57-.98 1.83-2.06 4.1-2.06 3.23 0 5.85 2.6 5.85 6.12 0 3.54-2.6 6.13-5.85 6.13-2.27 0-3.53-1.1-4.1-2.08v6.15h-1.7v-16zm5.8 10.33c2.4 0 4.15-1.95 4.15-4.54 0-2.6-1.76-4.54-4.14-4.54-2.48 0-4.32 1.95-4.32 4.54 0 2.6 1.84 4.55 4.32 4.55M215.63 54.14c2.27 0 3.54 1.08 4.1 2.06v-1.72h1.7v8.97c0 1 .23 1.45.88 1.45.17 0 .44-.03.6-.05v1.28c-.36.16-.7.2-1.07.2-.37 0-.83-.06-1.22-.33-.36-.28-.68-.76-.77-1.65-.66 1.03-1.97 2.04-4.2 2.04-3.23 0-5.84-2.6-5.84-6.14-.02-3.53 2.6-6.12 5.83-6.12m0 10.67c2.48 0 4.32-1.95 4.32-4.54 0-2.6-1.84-4.54-4.32-4.54-2.38 0-4.15 1.95-4.15 4.54 0 2.6 1.77 4.55 4.15 4.55"/><path d="M225.3 50.06h1.7V63c0 1.28.37 1.8 1.45 1.8.27 0 .58 0 .83-.04v1.44c-.28.16-.7.2-1.06.2-1.14 0-2.9-.3-2.9-3.27V50.06zM230.86 51.4c0-.65.55-1.14 1.15-1.14.6 0 1.16.5 1.16 1.15 0 .67-.56 1.16-1.15 1.16-.6 0-1.14-.48-1.14-1.15m.3 3.08h1.7v9.08c0 .85.2 1.22.87 1.22.16 0 .44-.02.6-.05v1.4c-.37.16-.72.2-1.08.2-.83 0-2.1-.24-2.1-2.47v-9.38zM241.7 54.14c2.26 0 3.52 1.08 4.1 2.06v-6.14h1.7v13.4c0 1 .22 1.44.86 1.44.16 0 .44-.03.6-.05v1.28c-.37.16-.7.2-1.08.2-.37 0-.82-.06-1.22-.33-.36-.28-.68-.76-.77-1.65-.68 1.03-2 2.04-4.2 2.04-3.24 0-5.86-2.6-5.86-6.13 0-3.54 2.62-6.13 5.85-6.13m0 10.67c2.47 0 4.3-1.95 4.3-4.54 0-2.6-1.83-4.54-4.3-4.54-2.4 0-4.16 1.95-4.16 4.54 0 2.6 1.77 4.55 4.15 4.55M256.35 54.14c2.27 0 3.53 1.08 4.1 2.06v-1.72h1.7v8.97c0 1 .23 1.45.87 1.45.16 0 .44-.03.6-.05v1.28c-.37.16-.7.2-1.08.2-.36 0-.82-.06-1.22-.33-.36-.28-.68-.76-.77-1.65-.67 1.03-1.98 2.04-4.2 2.04-3.23 0-5.85-2.6-5.85-6.14 0-3.53 2.62-6.12 5.85-6.12m0 10.67c2.48 0 4.3-1.95 4.3-4.54 0-2.6-1.82-4.54-4.3-4.54-2.4 0-4.15 1.95-4.15 4.54 0 2.6 1.76 4.55 4.15 4.55M271 54.14c2.28 0 3.54 1.08 4.1 2.06v-6.14h1.7v13.4c0 1 .24 1.44.88 1.44.16 0 .44-.03.6-.05v1.28c-.37.16-.7.2-1.08.2-.36 0-.82-.06-1.22-.33-.36-.28-.68-.76-.77-1.65-.66 1.03-1.97 2.04-4.2 2.04-3.22 0-5.84-2.6-5.84-6.13 0-3.54 2.6-6.13 5.85-6.13m0 10.67c2.48 0 4.32-1.95 4.32-4.54 0-2.6-1.84-4.54-4.3-4.54-2.4 0-4.16 1.95-4.16 4.54 0 2.6 1.76 4.55 4.15 4.55M18.6 33.34c0-.1.03-.32 0-.44l-.02-.03c-.02-.1-.06-.24-.3-.37-.15-.07-.3-.1-.43-.1-.2 0-.35.06-.48.2-.1.1-.23.37-.28.73-.06.3-.06.3 0 .54.02.05.03.1.05.15.1.42.55.6.9.6.3.02.73-.2.87-.33s.26-.2.4-.26c.13-.04.22-.06.45 0 .13.05.2.1.4.35l.06.05c.04.04.07.08.1.1.06.1.1.13.28.2.1 0 .17.03.24.03.17 0 .26-.08.3-.13.05-.05.14-.2.16-.3 0-.1 0-.28-.04-.4 0-.02-.02-.03-.02-.05-.05-.1-.1-.23-.27-.4s-.3-.2-.5-.25c-.02 0-.05-.02-.08-.02-.07-.02-.13-.03-.2-.03-.1 0-.23.03-.4.07-.04 0-.08.03-.13.04-.15.05-.3.14-.43.23-.15.1-.3.2-.46.22-.05 0-.1 0-.16 0-.2 0-.37-.04-.48-.08.1 0 .2-.03.27-.06.1-.04.18-.15.2-.26M13.57 54.27s0 0 .02 0c-.02 0-.03 0-.03 0M11.68 32.28s.02 0 .03 0c.2 0 .55.23.72.45.2.23.8 1.63 1.04 1.92.2.28.44.6.8.6h.05c.4-.03.7-.33.7-.6 0-.18-.24-.44-.43-.44-.08 0-.15.05-.2.16-.1.2-.24.26-.36.26-.1 0-.2-.06-.2-.06l-.5-.6.02-.24-.02.2.34.44 7.85-5.67.7-1.26-1.64.4-7 4.83-.13.07-.83-.14s-.5-.64-.66-.77c-.1-.08-.37-.22-.64-.22-.17 0-.33.08-.42.26-.14.27-.17.68-.17.68l.73.06s.1-.3.25-.32M10.82 33.75l-.14-.1s-.1 0-.17.05c-.08.04-.1.1-.16.23-.06.1-.1.32-.08.33 0 0 .02.03.04.08-.03 0-.04 0-.05 0l-.15.07c-.1.06-.22.1-.3.17-.1.06-.1.1-.13.26-.04.15.02.37.06.53.02.07.03.13.05.18-.05.04-.14.12-.17.2-.03.08-.07.12-.1.34-.04.23.15.6.5.62.04 0 .08 0 .12 0 .27 0 .4-.1.4-.1l.5-.37s.5.45.68.84c.2.4.23.96.5 1.38.15.24.23.28.57.5.18.1.22.14.28.14.04 0 .08-.02.14-.04 0 0 0 0 .02.03 0 .1.07.55.5 1 0 0-.43-.22-.63-.28-.3-.24-.45-.56-.47-.56-.22.78.63 1.33 1.12 1.52.02 0 .4.13.4.13s-.85 0-1-.02h-.03c-.02 0 .4.65 1.12.73-.02.04-.04.05-.05.08-.15.22-.28.64-.38 1.04-.07.3-.4.8-.63.8-.1 0-.18-.07-.22-.26-.07-.32-.34-.4-.58-.4-.23 0-.43.06-.43.06.26 0 .3.3.3.42 0 .14.03.48.6.63l-.8.52s-.03.04-.1.04c-.1 0-.22-.06-.42-.3-.34-.45-.34-.6-.6-.6-.04 0-.07 0-.1 0-.18.03-.22.2-.42.2-.07 0-.15-.02-.26-.06-.22-.1-.04-.67-.04-.67-.16.3-.3.64-.3.77s.04.26.3.3c.02 0 .02 0 .02 0 .02 0 .02 0 0 .05 0 .08-.08.32-.18.44-.1.13.08.3.12.33.02.02.74.65.74.65s.07.03.07.06 0 .02-.05.03c-.07 0-.37.07-.5.17-.14.1-.24.22-.26.32-.03.1-.05.22-.02.28.03.05.06.1.06.1l-.05.03s-.17.1-.33.22c-.16.13-.1.54-.06.63 0 0 0 0 .02 0 .04 0 .14-.38.55-.47 0 0 .02.1.15.25.03.03.12.06.23.06.1 0 .25-.02.32-.1.15-.2.54-1.08.54-1.08s-.43 1.04-.4 1.18c.02.13.1.28.2.32.02 0 .06 0 .1 0 .04 0 .08 0 .08 0s-.27.7.24 1.1c0 0-.18-1 .34-1.14.07 0 .25.1.5.1.06 0 .1 0 .15 0 .08-.02.15-.1.22-.24.1-.16.1-.22.1-.35-.02-.15-.13-.52-.2-.6-.08-.06-.18-.17-.18-.28 0-.1-.07-.33.1-.45.2-.12.26-.2.35-.38.05-.14.1-.38.15-.58-.05.48-.1 1.76.36 1.88.02 0 .6-.53.5-1.97 0-.1 0-.13 0-.13.05 0 .17.6.08 1.4 0 0 .2-.47.46-.47 0 0 .03 0 .04 0 0 0-.22.54.26.98 0 0-.32-1.8.7-2.88 0 0 .04.68.68 1.3 0 0-.2-.77.33-.8 0 0 .03 0 .05 0 .22 0 .7.05.7.05s.5-1.14-.37-1.58c-.3-.16-.38-.2-.38-.2s.33.15.33.15.9.24.45 1.6c-.1.32-.2 1.24 1.07 1.27.06 0 .2 0 .43 0 .4 0 1.02.02 1.7.14.17.07.38.1.54.18.13.06.25.1.37.17-.08.06-.33.18-.33.18s-.24.18-.3.27c-.1.1-.15.22-.18.33-.04.12-.17.6-.36.75-.2.14-.2.27-.26.3-.06.05-.06.15-.13.2-.05.03-.26.2-.4.2-.07 0-.13-.03-.16-.1-.1-.26-.1-.12-.1-.45s.32-.44.48-.6c0-.02-.08-.06-.2-.06-.08 0-.18.02-.27.1-.16.12-.25.3-.24.36 0 0-.2-.33-.37-.37-.07 0-.12 0-.17 0-.3 0-.55.18-.6.22-.02 0-.02 0-.02 0-.1.06.52-.07.63.57 0 0-.3-.37-.77-.37-.05 0-.1 0-.15 0-.16.04-.4.4-.45.74 0 .02 0 .03 0 .03.04 0 .17-.2.55-.2.1 0 .2.03.32.06 0 0-.24.05-.24.05h-.02c-.1 0-.46.05-.58.66-.1.4-.13.4 0 .7 0 0 .04-.72.88-.83 0 0-.9.32.02 1.2 0 0-.33-.7.46-.7.06 0 .1 0 .17.02.02 0-.18.08-.22.2-.04.06.04.34.26.34.05 0 .12-.03.2-.06 0 0 .1.95-.03 1.45-.02.14-.02.4-.35.7-.32.33-.55.43-.7.47-.4.16-.78.17-1.13.17h-.87s-.24-.57-.47-.7c-.15-.06-.4-.1-.6-.1-.1 0-.2 0-.26.04-.06-.1-.26-.35-.53-.35h-.03c-.32 0-.4 0-.84.24-.06.04-.35.4-.35.4s.2-.04.45-.04c.23 0 .47.03.64.1-.03.03-.06.06-.07.07-.05.07-.15.2-.16.28-.02.08-.02.1.1.16.1.07.13.07.3.07.18 0 .37-.07.53-.14.04 0 .06-.02.08-.02.07 0 .03.1-.03.1-.07.03-.35.17-.47.2h-.05c-.14 0-.35-.05-.42-.1-.1-.07-.18-.12-.18-.23 0-.1 0-.1.02-.1-.02 0-.16-.07-.32-.07-.08 0-.16.02-.24.06-.25.14-.3.22-.34.27-.03.05-.03.07 0 .17 0 .1.03.1.03.1s.04.02.08.05h-.03c-.05 0-.1 0-.15.04-.58.6-.43 1.25-.37 1.25 0 0 0-.02 0-.02.32-.48.68-.6.83-.6 0 .15-.04.35.05.45.1.12.13.1.27.18.08.06.12.07.15.07 0 0 .02 0 .02 0s.03-.2.18-.38.07-.15.27-.3c.17-.1.17-.13.26-.13h.07c.16 0 .08-.02.23.06.12.06.13.1.05.1-.02 0-.04 0-.08 0-.1-.03-.14-.06-.18-.06-.03 0-.05 0-.1.03-.1.05-.25.2-.36.33-.12.14-.2.25-.24.3 0 .02 0 .02 0 .03 0 0 0 0 .02 0 0 0 .03 0 .04 0 0 0-.28.4.24 1.25 0 0 0-.52.05-.62.05-.1.12-.18.17-.2.03.02.05.05.12.16.07.12.18.17.3.17.1 0 .18-.02.26-.04.2-.08.18-.12.33-.2.15-.1.3-.2.3-.2l.04.77s.17-.52.56-.78c.03-.03.05-.03.07-.05.04-.02.08-.03.12-.05 0 .02.16.6-.27 1 0 0 .67-.2 1-.66.12-.2.24-.35.3-.5.16-.28.16-.45.16-.45s.07-.1.1-.1c.02 0 .03.03.02.13-.1.74-.5.8-.67 1.3-.03.1-.1.33-.1.38.03.03.04.05.06.05.02 0 .03 0 .05 0 .05 0 .43-.27.53-.57.07-.15.07-.2.1-.2 0-.03.02-.05.08-.12.14-.17.3-.15.43-.25l.1-.1s.04-.05.05-.06c.05-.16 0-.63 0-.63s.04-.1.07-.1c.02 0 .03.03.03.1.02.17.04.4.02.52-.02.1.03.25-.37.42 0 0-.33.1-.32.28 0 .12-.02.6 0 .7.02.03.04.04.05.04s.03-.04.04-.06c0-.03.12-.37.26-.5s.12-.15.27-.2c.15-.03.24 0 .35-.15.12-.16.1-.6.12-.93 0-.12.02-.16.03-.16.03 0 .05.1.05.15 0 .05.02.16 0 .6-.04.4 0 .45-.1.7-.07.22-.1.15-.1.2.02.03.02.04.03.04.02 0 .03-.02.05-.03.04 0 .3-.18.38-.3.1-.1.22-.33.17-.77-.04-.44-.06-.53-.06-.53s.02-.08.04-.08c0 0 .03.02.05.08.03.14.06.4.06.5 0 .1 0 .15.37.52 0 .02.02.03.03.05.04 0 .08-.94.08-.94s.1.3.6.33h.02c.32 0 .1-.34.1-.34l-.24-.27-.37-.56s-.05-.17-.02-.17c0 0 .04.03.1.12.28.48.34.57.8.57h.05s.14-.03.15-.05c0-.03 0-.1-.04-.14-.05-.04-.2-.15-.3-.3-.16-.2-.2-.8-.2-.84 0-.03 0-.04 0-.04s.02.03.02.03.2.14.3.32c.1.17.18.36.23.45.04.08.14.22.28.35 0 0 0-.15 0-.15s.08-.2.08-.45c0-.08-.1-.6-.12-.6 0-.02 0-.03 0-.03.02 0 .06.02.15.1.14.1.18.2.22.33.04.15.05.4.05.46.02 0 .32-.64.32-.64s-.17.4.33.43c.14-.02.3-.07.36-.22.14-.08-.06-.54-.13-.56-.16-.04-.5-.16-.6-.3-.1-.16-.3-.74-.33-.75 0 0 .24.4.45.52.12.06.26.08.37.08.12 0 .2-.02.23-.02 0 0 .05-.28.05-.28s-.2-.1-.34-.83c-.04-.23 0-.33.03-.33h.02c.06.03.15.32.3.4.06.02.1.04.16.04.07 0 .14-.03.25-.08.15-.06.28-.22.28-.22s-.1.02-.2.02c-.08 0-.18 0-.24-.07-.12-.1-.17-.17-.23-.3-.06-.1-.1-.18.05-.23.15-.06.27-.1.38-.1.02 0 .24-.3.5-.53.2-.18.5-.34.5-.34l.92.15c.24.67-.03 1.78-.67 1.97-.12.03-.22.04-.3.04-.3 0-.42-.15-.47-.28-.02-.04-.03-.08-.03-.13 0 0 0-.02-.02-.02-.3.16-.18.92.3 1.07 0 0-.1.05-.24.05-.2 0-.46-.1-.55-.57 0 0-.35 1.14.53 1.14.02 0 .04 0 .06 0 0 0-.06.03-.2.13-.2.1-.32.2-.38.46-.15.3-.15.47.03.74 0 0 .04-.2.14-.25.15-.1.28-.5.28-.5s-.13.5-.02.86c.05.17.15.43.82.55.02 0 .05 0 .08 0 .3 0 .65-.3.65-.3-.8-.16-.75-.08-.9-.3-.25-.34-.16-.5-.18-.6.02 0 .23.27.3.34.1.07.46.17.78.17.2 0 .35-.02.44-.1 0 0-.73-.27-.8-.52-.06-.25-.06-.56.16-.8.07-.1.16-.13.23-.13 0 0 .02 0 .03 0 .08.03.07.04.12.18.04.13.5.98.7 1.22.23.26.57.4.95.6.38.2.43.48.36.92-.1.57-.4 1.1-.44 1.15-.03 0-.6-.04-1.2-.04-.4 0-.8.02-1 .1-.25.1-.37.3-.56.54 0 .02 0 .04 0 .07-.13 0-.6.04-.74.3-.18.28-.2 1.12-.2 1.16.02 0 .3-.6.47-.67.06-.03.08-.04.1-.04.04 0 .06 0 .14.02h.02s.02 0 .03 0c-.04.03-.08.07-.12.1-.02.03-.15 1.1.1 1.1 0 0 .02 0 .03-.02-.04.05-.2.2-.25.46-.07.3.1.66.15.66.02-.08.02-.2.12-.35.15-.24.6-.32.72-.4.02 0 .1.08.16.1 0 .02 0 .02 0 .02.02 0 .03 0 .03 0l.26-.5.47-.95-.7 1.5s0 0 .05 0c.06 0 .15 0 .25.03-.04 0-.08 0-.1 0-.13 0-.24.02-.24.03-.22.46.1.96.1.96.03-.25-.05-.48.24-.6.15-.05.24-.1.28-.14.02.02.04.05.06.05.12 0 .1-.63.18-.7.12-.08.26.03.76-.14.5-.2.27-.72.24-.82-.03-.1-.2-.43-.1-.66.13-.23.17-.25.3-.26 0 0 0 0 .02 0 .12 0 .3.05.3.56 0 0-.05.16-.05.16s-.07.15-.08.25c0 .1.02.2.17.3.03 0 .06 0 .1 0 .13 0 .28-.12.37-.37.07-.2.07-.75.14-.95 0 0 0-.02.02-.02 0 0-.13.7.43.9 0 0-.02-.86-.05-.9-.3-.32-.3-.28-.3-.68 0-.24.1-.28.2-.32.03-.02.07-.02.1-.02.12 0 .15.1.17.1.04.03.06.2 0 .4-.04.2-.08.1-.04.24.03.14.08 0 .22.28.15.27.17.3.17.3s.1-.94.04-1.07c-.05-.13-.14-.5-.2-.58-.02-.02-.02-.06 0-.06.05 0 .17.1.45.5.38.52.34.7.34.7s.4-.56 0-1.17c-.36-.62-.1-.9 0-1.14.1-.23.56-.66.56-1.06 0-.42-.12-.53-.33-.63-.2-.1-1.14-.4-1.34-.47-.2-.07-.68-.2-.83-.6-.15-.4-.1-.4-.06-.66.03-.27.26-.5.36-.76.1-.26.13-.65.1-.9-.04-.27-.1-.7-.1-.7s.17.03.42.03c.26 0 .57-.02.8-.16.18-.1.12-.1.73-.74.6-.62.32-3.03-.17-3.53 0 0-.13-.06-.3-.06-.04 0-.12 0-.18.05-.2.1-.37.27-.4.6-.05.35.16.66.25.82.1.16.1.17.17.3.05.06.1.12.1.12s-.03-.04-.1-.14c-.2-.24-.45-.6-.47-.94 0-.32.06-.44.14-.58.05-.1.22-.3.53-.3.1 0 .23.03.38.1.28.12.53.52.65.72 0 0 .07-.16.18-.4.23-.4.27-.57 0-1.2-.08-.24-.14-.24-.14-.24l.23-.46s.18-.25.25-.64c.06-.4.02-.93-.66-1.78 0 0 .35.65 0 1.66 0 .02 0 .05 0 .05 0-1-.23-1.68-1.14-2.12 0 0 .63.76.3 2.7 0 0 0-2.06-1.45-2.18 0 0 .7.44.4 1.35 0 .02-.02.03-.03.05 0 .02-.02.06-.04.08 0 .04-.02.06-.03.1-.02-.02-.54-.35-.8-1.16-.1-.3-.3-1.07-.27-1.66.03-.58.32-1.35.64-1.72.3-.38.52-.42.8-.52.2-.07.3-.1.42-.1.05 0 .1 0 .15 0 .23.04.3.1.4.23.1.1.17.25.2.38 0 .14 0 .34-.15.48-.1.1-.16.2-.33.2-.06 0-.15-.02-.24-.05-.38-.1-.4-.1-.4-.1s.07.27.55.87c.1.12.27.16.47.16.2 0 .4-.05.53-.12.16-.08.5-.2.43-.72-.1-.78-.08-.6-.08-.94v-.05s.4.26.3 1.37l-.1.56s.64-.12.73-1.05c.1-.93-.43-1.32-.48-1.34 0 0 .37.2.56.2.03 0 .05 0 .07 0 .76-.37.64-.85.67-1 0 0-.22.18-.65.18-.2 0-.42-.03-.7-.14 0 0 1.04-.4 1-1.5-.02-1.08-.12-1.28-.12-1.28l-.1-.54s0 .45-.12.68c-.13.23-.5.35-.6.53-.13.18-.27.6-.35.97 0 0-.2-.37.06-.95.4-.86.43-.76.42-1.57 0-.72-.2-1.13-.6-1.34-.1-.07-.42-.55-1.9-.55-.15 0-.32 0-.5 0l.36.16s.8.5 1 .94c.12.27.22.25.15 1.18-.03.28-.1.58-.33.97-.2.38-.63.86-.55 1.87 0 .27 0 .42 0 .42s0-.07-.02-.18c-.1-.87.02-1.38.22-1.68.34-.5.38-.68.4-.8.03-.15-.2-.57-.35-.67-.16-.1-.43-.25-.75-.27-.2 0-.28-.04-.4-.04-.1 0-.2.02-.36.07-.38.12-.45.17-.45.17s.25.06.5.23c.23.16.17.1.26.34.1.25.12.97.08 1.27-.04.3-.08.6-.33 1.06-.22.47-.62 1.08-.82 1.3-.2.23-.57.95-.74 1.43-.16.48-.24 1.12-.23 1.73.02.6.25 1.38.35 1.63.1.25.26.88 1.4 1.73 0 0-.12.2-.17.55-.06.37-.06.88.03 1.2.1.35.06.3.26.55.2.23.16.2.4.44.24.25.18.17.26.35.08.18.22.58.14.9-.1.33-.14.34-.3.46-.02.03-.07.04-.12.04-.2 0-.53-.17-.75-.44-.15-.17-.54-.8-.82-1.3-.28-.46-1.2-1.5-1.83-2-.64-.5-1.72-1.48-1.72-1.48s-.76-.58-.96-.9c-.2-.3-.38-1.03-.38-1.03s.2.67.9.95c0 0-.28-.34-.4-.8-.18-.78-.14-1.06-.14-1.2.05.17.2.6.5 1.03.44.6.57.54.94.66.08.03.14.04.17.04.1 0-.03-.12-.03-.12s0 0-.32-.34c-.27-.28-.23-.2-.42-.54-.2-.35-.3-.98-.27-1.35 0-.15.07-.32.07-.32s.1.15.2.4c.16.4.08.97.06 1.07 0 0 0 .02 0 .02.06 0 .54-.47.45-1.14-.03-.28-.02-1.22-.02-1.22l.15 1.3s-.06.6.8.7c.08 0 .13 0 .17 0 .12 0 .16 0 .16 0s-.52-.4-.55-.57c-.18-1.13-.04-1.2-.35-1.86-.12-.23-.1-.6-.03-.6.02 0 .04.04.06.12.1.35.08.25.1.43.08.44.4.67.4.67l-.02-1c0 .04 0 .4.32.7.17.14.38.22.6.22.17 0 .33-.06.45-.18.27-.27.48-.8.48-.8l-.12.1s-.08.05-.22.1c-.06 0-.12 0-.17 0-.1 0-.2 0-.3-.06-.17-.07-.18-.1-.35-.3-.16-.22-.23-.4-.27-.55-.05-.14-.08-.24-.1-.3.02 0 .14.18.2.33.1.28.25.35.36.35.1 0 .2-.07.2-.08-.05-.26-.1-.4-.1-.4-.3-.6-.26-.6-.26-.6s.12.27.3.5c.1.08.25.1.4.1.16 0 .32-.02.45-.04.57-.08.62-.74.62-.74s-.38.22-.68.22c-.34 0-.8-.26-1.02-1.03 0 0 .03-.03.03-.03s.2.02.42.08c.18.05.45.3.45.3s.24-.57-.4-.85c-.12-.05-.15-.06-.15-.06.02 0 .34.13.34.13s.33.2.66.2c.17 0 .33-.06.44-.22.03-.05.18-.4.18-.4s-.13.03-.74.13c0 0-.02 0-.03 0-.22 0-.46-.34-.52-.46-.04-.1-.1-.17-.32-.3-.2-.14-.78-.45-1.16-.5-.1 0-.08-.03.03-.03.1 0 .28.03.5.1.45.15.2.24.73.35.02 0 .05 0 .07 0 .32 0 .8-.43.8-.43.15-.25.16-.3.15-.3 0 0-.02.02-.02.02s-.34.1-.7.1c-.25 0-.5-.05-.64-.22-.05-.05.4-.2.6-.48.16-.27.22-.34.38-.65 0 0 .04-.03-.1-.03-.08 0-.2 0-.4.02-.7.07-1.1.15-1.1.15s.68-.6.76-.94c.08-.3.14-.62.15-.7v-.02s0 0 0-.02c-.03 0-.48.3-.6.45-.13.15-.32.32-.45.36-.15.05-.2.08-.3.08-.1 0-.2-.02-.46-.05-.48-.08-.66-.32-.94-.42-.16-.06-.32-.08-.48-.08-.18 0-.37.04-.55.1-.33.15-.24.1-.34.17-.1.08-.62.63-.7.73-.08.08-.14.1-.32.18-.17.08-.37.15-.52.25-.15.1-.37.22-.43.32-.05.1-.08.14-.06.22 0 .08 0 .05.1.15.1.1.03.03.16.14.1.08.08.07.12.1h-.17l-.3.03c-.02.04-.1.24-.05.35 0 .03.02.04.03.05.02.08.04.13.14.17.02 0 .05.02.07.03-.03 0-.04.03-.05.05-.07.13-.08.2-.08.28 0 .1 0 .23.07.34.06.1.07.12.12.14.02.03.04.03.06.03.05 0 .1-.02.15-.04.07-.05.13-.1.3-.15.13-.04.38-.13.42-.14.02 0 .03-.06.22-.17.1-.06.2-.1.3-.1.05 0 .1 0 .16.03.2.06.25.13.28.16.14.12.2.23.26.37.07.2.27 1.56-.72 1.56-.04 0-.07 0-.1 0-.3-.04-.63-.44-.63-.44-.1-.1-.26-.24-.26-.24l-.02.18.16.3s-.18-.07-.32-.07c-.03 0-.06 0-.08 0-.13.04-.1.02-.1.07 0 .06.1.3.15.37.05.08.1.22.25.32.14.1.23.14.4.14 0 0 .02 0 .04 0 .14 0 .34-.02.34-.02s-.27.22-.88.22c-.25 0-.54-.04-.9-.13-.02 0-.28-.1-.46-.1-.03 0-.07.02-.1.02-.14.04-.13.02-.33.2-.1.08-.26.1-.38.18-.14.1-.34.18-.34.67-.04 0-.1-.02-.1-.02s-.4-.08-.67-.08c-.28 0-1 .18-1.37.64 0 0-.06.16-.16.2-.18.1-.27.1-.37.1-.03 0-.05 0-.1 0-.3-.02-.1-.08.02-.1.12 0 .16 0 .27-.03.18-.07.2-.16.2-.16s-.16-.1-.25-.18c-.1-.06-.4-.24-.5-.35-.1-.1-.44-.55-.56-.72-.13-.17-.34-.55-.38-.7-.03-.18-.08-.4-.08-.4l-.6.4.6-.4.24-.18-.73-1.4-.5.24c-.05-.08-.08-.17-.1-.2-.04-.07-.06-.13-.14-.18-.07-.04-.08-.03-.22-.04h-.03c-.13 0-.3.08-.43.14-.2.07-.15.15-.27.25-.14.14-.07.32-.07.32l-.06.05zM21.34 31c-.1-.03-.1-.05-.14-.1 0 0 0-.02-.03-.03v-.02l-.34.06c.24-.08.32-.13.4-.18.07-.04.13-.07.26-.12.05-.02.1-.04.12-.04.02 0 .05 0 .1 0l.03.02c.07 0 .13.05.2.1.05.04.12.08.2.1.22.04.3.04.35.04h.06l-.18.02h-.33c0 .04-.03.06-.03.07-.08.1-.17.13-.27.14 0 0-.02 0-.04 0 0 0 0 0-.02 0-.1.03-.2.05-.34-.03"/><path d="M12.55 35.16l.6-.42-.6.42zM6.1 16.4l.1-.05s.06-.03.06-.03c.53-.24 1.12-.48 1.73-.7l-.44-1.2c-.6.24-1.17.5-1.7.77h-.04c-.08.05-.17.1-.24.14l.5 1.07M40.44 19.06H6.08c3.97-1.78 9.12-2.86 14.76-2.86 5.6 0 10.7 1.06 14.67 2.82l2.16-5c-4.16-2.4-10.16-3.92-16.82-3.92-6.78 0-12.85 1.56-17 4.03l2.2 4.93H1.17V49.5c0 10.78 8.8 19.58 19.63 19.58 10.83 0 19.64-8.8 19.64-19.6V19.07zm-20.42 2.76c-.15-.3-.6-.48-.8-.54.16-.2.7-.7 1.66-.7v-.02.03h.04c.77 0 1.45.55 1.67.74-.28.1-.97.36-.92.7.03.22.16.46.6.46.42 0 .94-.2 1.15-.3-.02.24-.13.9-.75 1.14-.05.02-.07.05-.07.08 0 .06.07.07.18.1.16.04.44.1.53.3.06.08.06.2 0 .32-.06.17-.16.24-.3.24-.35 0-.8-.4-.8-.4-.02-.02-.03-.02-.04-.02-.02 0-.04 0-.05.02 0 .02 0 .06 0 .08 0 0 .38.4.35.73 0 .1-.05.2-.15.27-.08.08-.17.1-.26.1-.37 0-.67-.65-.67-.66 0 0-.03-.03-.05-.03 0 0 0 0-.02 0-.03.02-.05.05-.04.08 0 0 .13.55-.06.8-.08.1-.18.14-.3.15h-.04c-.16 0-.27-.05-.34-.15-.2-.25-.02-.76-.02-.77 0-.03 0-.06-.04-.07 0 0 0 0-.02 0s-.04.02-.05.04c0 0-.36.64-.75.64-.06 0-.12-.02-.18-.06-.1-.05-.15-.12-.17-.22-.06-.3.26-.72.26-.72.02-.03.02-.06 0-.08 0-.02-.03-.02-.05-.02 0 0 0 0-.02 0 0 0-.4.28-.7.28-.2 0-.3-.08-.36-.26-.04-.14-.04-.24.02-.32.1-.17.4-.2.56-.23.14-.02.2-.03.2-.1.02-.06-.05-.1-.1-.1-.43-.2-.8-.7-.87-1.17.46.23.88.35 1.2.35.3 0 .5-.1.6-.3.05-.15.05-.28 0-.4m13.16-6.06l.57-1.6c.03-.04.06-.08.12-.1.03-.03.1-.03.14 0 .7.27 1.4.56 2.04.9l.06.02.2.1c.1.05.15.17.1.26l-.63 1.45c-.02.06-.06.1-.1.12-.03 0-.06 0-.08 0-.03 0-.06 0-.1 0-.02-.02-.05-.03-.08-.05l-.08-.03-.05-.02c-.64-.3-1.3-.55-2-.78-.04-.02-.1-.06-.1-.1-.03-.06-.03-.12-.02-.17m-7.08-3.3c.02-.12.12-.2.23-.2 1.6.2 3.16.5 4.6.85.05.02.1.05.13.1.03.04.03.1.02.15l-.47 1.72c0 .08-.1.14-.2.14 0 0 0 0-.03 0-1.4-.32-2.85-.57-4.35-.74-.04 0-.1-.03-.13-.08-.05-.04-.06-.1-.05-.15l.25-1.8zM18.42 12c1.4-.06 3.05-.06 4.42 0 .1 0 .2.1.2.2l-.1 1.85c0 .1-.1.2-.2.2-1.45-.06-2.8-.06-4.22 0-.06 0-.1 0-.15-.04-.04-.03-.06-.08-.06-.14l-.07-1.83c0-.12.08-.2.2-.2m-8.02 1.16c1.47-.38 3.03-.68 4.65-.9.05 0 .1.02.15.05.04.04.07.1.08.14l.18 1.8c0 .12-.07.22-.18.23-1.5.2-2.96.44-4.33.77-.02 0-.04 0-.06 0-.1 0-.18-.05-.2-.15l-.44-1.7c-.03-.12.04-.23.15-.26m-4.43 3.68c-.02 0-.04 0-.06 0-.04-.03-.08-.07-.1-.1l-.67-1.44c-.04-.1 0-.2.1-.26.12-.08.26-.16.4-.23 0 0 .05-.03.05-.03.6-.3 1.24-.58 1.92-.85.06-.02.12-.02.16 0 .06.03.1.07.1.12l.58 1.58c.02.05 0 .1 0 .15-.03.05-.08.1-.13.1-.66.24-1.3.5-1.88.76h-.05l-.1.07c-.08.03-.14.06-.2.1-.03 0-.07 0-.1 0m-1.8 4.87c-.14-.3-.6-.47-.8-.53.16-.18.7-.68 1.67-.68h.04c.77 0 1.46.55 1.68.74-.28.1-.97.36-.92.72.03.2.16.44.6.44.42 0 .94-.2 1.15-.3-.03.25-.14.9-.77 1.15-.04.02-.06.04-.06.08 0 .06.06.07.17.1.16.03.44.1.53.28.05.1.05.2 0 .34-.07.15-.16.24-.3.24-.35 0-.8-.4-.82-.4 0 0-.02 0-.03 0-.02 0-.04 0-.05 0-.02.03-.02.06 0 .1 0 0 .36.38.35.7-.02.13-.06.22-.16.3-.08.08-.17.1-.26.1-.38 0-.67-.65-.67-.66 0-.02-.03-.04-.06-.04-.04.02-.06.05-.05.08 0 0 .13.54-.07.8-.07.1-.17.14-.3.15h-.03c-.16 0-.27-.05-.34-.15-.2-.25-.02-.77-.02-.77 0-.02 0-.06-.04-.06 0 0 0 0-.02 0s-.04 0-.05.02c0 0-.35.65-.74.65-.06 0-.12 0-.18-.05-.1-.05-.14-.13-.16-.22-.06-.3.25-.72.26-.73.02-.02.02-.05 0-.08-.02 0-.03-.02-.05-.02 0 0-.02 0-.03.02 0 0-.4.27-.72.27-.17 0-.3-.1-.34-.28-.05-.13-.04-.23 0-.3.1-.18.4-.22.58-.25.13 0 .2-.02.2-.1.02-.05-.05-.08-.1-.1-.43-.2-.8-.7-.87-1.17.46.24.87.36 1.2.36.28 0 .5-.1.58-.3.06-.15.06-.3 0-.42m-.56 20.4c-.1-.06-.14-.14-.16-.24-.06-.3.25-.7.26-.72.02-.02.02-.06 0-.08-.02 0-.03 0-.05 0 0-.02-.02 0-.03 0 0 0-.4.26-.72.26-.17 0-.3-.08-.34-.26-.05-.14-.04-.24 0-.32.1-.17.4-.2.58-.23.13-.02.2-.03.2-.1.02-.06-.05-.1-.1-.1-.43-.22-.8-.7-.87-1.18.46.24.87.36 1.2.36.28 0 .5-.1.58-.3.06-.15.06-.28 0-.42-.15-.28-.6-.45-.8-.52.15-.18.68-.7 1.66-.7h.04c.77.02 1.46.57 1.68.77-.28.08-.97.35-.92.7.03.2.16.45.6.45.42 0 .94-.2 1.15-.3-.03.24-.14.88-.77 1.14-.04.02-.06.05-.06.08 0 .06.06.07.17.1.16.04.44.1.53.3.05.08.05.2 0 .33-.07.15-.16.23-.3.23-.35 0-.8-.4-.82-.4 0 0-.02-.02-.03-.02-.02 0-.04 0-.05.02-.02.02-.02.06 0 .08 0 0 .36.4.35.73 0 .1-.06.2-.16.28-.08.07-.17.1-.26.1-.38 0-.67-.66-.67-.66 0-.02-.03-.04-.05-.04 0 0 0 0-.02 0-.03.02-.05.05-.04.08 0 0 .13.54-.07.8-.07.1-.16.14-.3.15h-.03c-.15 0-.27-.04-.34-.14-.2-.25-.02-.77-.02-.77 0-.04 0-.07-.04-.08 0 0 0 0-.02 0s-.04 0-.05.02c0 0-.35.65-.74.65-.06-.02-.12-.03-.18-.07M8.98 57.3c-.3 0-.67-.14-.67-.14-.04 0-.06 0-.07.04 0 .02 0 .05.03.07 0 0 .48.24.57.57.04.1.03.2-.04.3-.1.15-.2.22-.34.22-.34 0-.74-.42-.74-.42s-.02-.02-.04-.02-.03 0-.04.02c-.02.02-.03.05 0 .07 0 .02.3.48.2.8-.03.1-.1.18-.24.23-.07.03-.14.04-.2.04-.45 0-.47-.76-.47-.77 0-.03-.03-.05-.06-.05-.04 0-.06 0-.07.05 0 0-.13.87-.6.87 0 0-.04 0-.07 0-.1-.03-.18-.08-.22-.16-.15-.26 0-.75 0-.76 0-.03 0-.06-.03-.07 0 0 0 0-.03 0-.02 0-.03 0-.04.02 0 0-.38.5-.72.5-.1 0-.2-.04-.28-.15-.08-.1-.1-.2-.1-.3.05-.2.3-.33.46-.4.12-.08.18-.1.17-.17 0-.06-.1-.07-.13-.08-.5-.04-1-.36-1.23-.8.18.03.35.04.5.04.74 0 1.17-.2 1.2-.6 0-.14-.03-.26-.12-.36-.2-.2-.56-.25-.83-.25H4.6c.08-.23.4-.9 1.35-1.23.2-.07.43-.1.67-.1.5 0 .97.16 1.17.23-.24.18-.8.67-.63 1 .1.17.25.26.43.26.46 0 1.06-.55 1.26-.75.07.24.2.9-.32 1.34 0 0-.05.04-.03.08.02.03.05.06.1.06.02 0 .06 0 .1-.02.07 0 .16-.02.24-.02.17 0 .3.05.38.12.06.07.1.18.1.3 0 .26-.16.38-.44.38m13.82 8.6c.17.05.44.1.54.3.04.08.04.2 0 .33-.07.15-.17.23-.32.23-.34 0-.8-.4-.8-.4s-.02-.02-.04-.02-.03 0-.05.02c-.02.02-.02.06 0 .08 0 0 .38.4.35.73 0 .12-.06.2-.15.3-.1.06-.18.1-.26.1-.38 0-.67-.66-.67-.67 0-.02-.04-.03-.06-.03 0 0 0 0-.02 0-.03 0-.04.04-.03.07 0 0 .1.54-.08.8-.07.1-.17.14-.3.15h-.03c-.17 0-.28-.07-.35-.16-.2-.25-.03-.76-.03-.77 0-.03 0-.06-.03-.07-.02 0-.02 0-.03 0-.02 0-.04 0-.05.02 0 0-.36.65-.75.65-.06 0-.12-.02-.18-.06-.1-.04-.15-.12-.17-.2-.06-.32.25-.74.26-.74 0-.02 0-.06-.02-.08 0 0-.02 0-.04 0 0 0-.02 0-.04 0 0 0-.4.27-.7.27-.2 0-.3-.1-.36-.27-.04-.13-.04-.23.02-.32.1-.16.4-.2.56-.23.14-.02.2-.02.2-.1.02-.05-.05-.1-.08-.1-.45-.2-.8-.7-.9-1.17.48.23.9.36 1.2.36.3 0 .5-.1.6-.3.06-.15.06-.3 0-.42-.14-.3-.6-.48-.8-.54.16-.18.7-.68 1.66-.68h.04c.77 0 1.46.55 1.68.75-.28.1-.96.35-.92.7.03.2.16.45.6.45.43 0 .95-.2 1.16-.3-.02.24-.14.9-.76 1.14-.05.02-.07.05-.06.1 0 .05.05.06.16.1m-2-3.98c-6.76 0-12.26-5.48-12.26-12.23V26.66h24.5v23.07c0 6.74-5.5 12.22-12.25 12.22m16.04-4.5c-.04.02-.07.04-.08.07-.02.06.03.1.12.16.14.1.38.25.4.45.02.1-.02.22-.12.32-.08.1-.16.14-.26.14-.3 0-.63-.48-.73-.67 0-.03-.03-.05-.05-.05 0 0 0 0-.02 0-.04.03-.04.06-.04.1 0 0 .22.48.08.8-.04.1-.12.17-.24.2-.05.03-.1.04-.16.04-.46 0-.5-.88-.5-.9-.02-.02-.05-.04-.08-.04s-.05.02-.06.05c0 .02-.1.8-.52.8-.05 0-.1 0-.15-.03-.16-.05-.26-.14-.3-.25-.1-.3.25-.74.25-.75.02-.02 0-.06 0-.08-.02-.02-.04-.02-.05-.02 0 0-.03 0-.04 0 0 .02-.44.4-.8.4-.1 0-.2-.06-.28-.15-.07-.08-.1-.17-.08-.27.05-.3.5-.58.5-.6.02 0 .03-.04.02-.06 0-.02-.03-.04-.06-.04-.02 0-.23.06-.46.06-.22 0-.38-.04-.47-.14-.06-.06-.1-.16-.08-.27 0-.24.12-.36.37-.36.13 0 .25.02.35.05.07 0 .12.02.15.02.05 0 .07-.03.08-.06.03-.04-.03-.1-.05-.12-.35-.35-.52-.93-.43-1.4.48.5.95.8 1.3.8.14 0 .27-.04.36-.14.1-.1.15-.24.14-.4-.03-.32-.4-.64-.57-.76.14-.08.48-.24.96-.24.28 0 .58.06.87.17.72.27 1.18 1.02 1.33 1.27h-.1c-.42 0-.94.07-1 .36-.04.16 0 .3.08.42.22.26.75.32 1.17.32.15 0 .27 0 .35 0-.1.22-.43.8-1.1.8m1.8-16.93c.16.05.44.1.53.3.05.08.05.2 0 .33-.06.16-.16.24-.3.24-.35 0-.8-.4-.8-.4-.03-.02-.04-.02-.05-.02-.02 0-.03 0-.05.02-.02.02-.02.06 0 .08 0 0 .37.4.35.73 0 .1-.06.2-.16.28-.1.07-.17.1-.26.1-.37 0-.65-.65-.66-.66 0-.02-.03-.03-.05-.03h-.03c-.03 0-.05.04-.04.07 0 0 .13.54-.06.8-.08.1-.17.14-.3.15h-.03c-.16 0-.27-.06-.34-.16-.2-.25-.03-.76-.03-.77 0-.02 0-.06-.04-.07-.04 0-.06 0-.07.03 0 0-.35.64-.74.64-.06 0-.12-.02-.18-.06-.1-.04-.15-.12-.17-.2-.06-.32.25-.73.26-.74.02-.02.02-.06 0-.07 0-.03-.03-.03-.05-.03 0 0-.02 0-.03 0 0 0-.4.28-.7.28-.2 0-.3-.1-.36-.26-.05-.15-.05-.25 0-.33.1-.17.4-.2.57-.24.13-.02.2-.02.2-.1.02-.05-.05-.08-.08-.1-.46-.2-.82-.68-.9-1.17.47.24.88.36 1.2.36.3 0 .5-.1.6-.3.05-.15.06-.3 0-.42-.15-.3-.62-.47-.82-.53.17-.2.7-.7 1.67-.7h.04c.76.02 1.44.56 1.66.76-.27.1-.95.35-.9.7.03.22.15.46.6.46.4 0 .93-.23 1.14-.32-.02.24-.13.9-.75 1.15-.04 0-.07.04-.07.08 0 .07.06.08.17.1m-.1-17.16c-.04.02-.07.04-.07.08 0 .06.06.07.17.1.16.04.44.1.53.3.05.08.05.2 0 .32-.06.17-.16.24-.3.24-.35 0-.8-.4-.8-.4-.03-.02-.04-.02-.05-.02-.02 0-.03 0-.05.02-.02.02-.02.06 0 .08 0 0 .37.4.35.73 0 .1-.06.2-.16.27-.1.08-.17.1-.26.1-.37 0-.65-.65-.66-.66 0 0-.03-.03-.05-.03-.02 0-.03 0-.03 0-.03.02-.05.05-.04.08 0 0 .13.55-.06.8-.08.1-.17.14-.3.15h-.03c-.16 0-.27-.05-.34-.15-.2-.25-.03-.76-.03-.77 0-.03 0-.06-.04-.07-.04 0-.06.02-.07.03 0 0-.35.65-.74.65-.06 0-.12-.02-.18-.06-.1-.05-.15-.12-.17-.22-.06-.3.25-.72.26-.72.02-.03.02-.06 0-.08 0-.02-.03-.02-.05-.02 0 0-.02 0-.03 0 0 0-.4.28-.7.28-.2 0-.3-.1-.36-.26-.05-.14-.05-.24 0-.32.1-.17.4-.2.57-.24.13 0 .2-.02.2-.1 0-.05-.05-.08-.08-.1-.46-.2-.82-.7-.9-1.16.47.23.88.35 1.2.35.3 0 .5-.1.6-.3.05-.15.06-.28 0-.4-.16-.32-.62-.5-.82-.55.17-.2.7-.7 1.67-.7h.04c.76.02 1.44.57 1.66.76-.27.1-.96.36-.9.7.02.22.15.46.6.46.4 0 .93-.2 1.14-.3-.02.24-.12.9-.75 1.14M15.03 14.15l-.14-1.4c-1.47.18-2.87.45-4.2.8l.34 1.3c1.27-.3 2.6-.53 4-.7M22.56 13.83l.06-1.44c-1.24-.05-2.7-.05-3.98 0l.07 1.44c1.3-.05 2.54-.05 3.86 0"/><path d="M35.52 16.46l.47-1.1-.07-.02c-.6-.3-1.2-.58-1.85-.82l-.44 1.2c.62.22 1.24.46 1.83.72l.05.02zM30.63 13.47c-1.3-.32-2.7-.58-4.15-.76l-.2 1.42c1.37.16 2.7.4 4 .67l.35-1.33zM40.48 4.97c-.4 0-.85.04-1.15.2-.63.34-1 1.32-.76 1.65.02.04.04.05.04.05s-.56-.62-1.2-.62c-.22 0-.45.08-.68.25-1.24 1-.46 2.22.46 2.56.26.1.46.14.6.14.28 0 .37-.1.37-.1l-.25.34-.15.1.04.66c-.05-.17-.17-.4-.52-.64-.1-.06-.2-.1-.27-.1-.23 0-.46.2-.56.7-.15.7.6.65.8.75.18.1-.45.72-1.2.72-.15 0-.3-.02-.44-.07-.62-.2-.96-.8-1-1.15-.02-.36.1-.77.1-.77s.06.66.6.66c.08 0 .18-.03.3-.07.57-.23.72-1.12.02-1.5-.44-.22-.45-.65-.4-.84.1-.44.45-.96-.04-1.1-.07-.03-.13-.05-.2-.05-.26 0-.3.4-.46.7 0 0-.02 0-.03 0-.02.02-.03.03-.02.05 0 0 0 0 .02 0 0 .02 0 .03 0 .03-.05.07-.1.18-.2.3 0-.02 0-.03-.02-.02 0 .02 0 .03 0 .05-.1.1-.24.2-.44.2-.05 0-.1 0-.14-.02-.06-.02-.12-.02-.18-.02-.65 0-.95.83-.75 1.2.15.25.34.32.54.32.28 0 .53-.16.53-.16s-.3.6-.56.87c-.26.25-.38.3-1.04.3-.96 0-1.42-.9-1.26-.9 0 0 0 0 .02 0 .1.02.18.03.3.03.46 0 1-.27.86-.72-.13-.38-.3-.5-.5-.5-.36 0-.74.43-.74.43l.42-1.97c0 .04-.05.35.45.9.12.17.36.25.62.25.7 0 1.62-.6 1.37-1.84-.16-.78-.8-.9-1.13-.9-.1 0-.18.03-.2.03 0 0 .03 0 .06-.02.42-.1.8-.7.57-1.33-.3-.74-.8-.4-.94-1.38-.08-.54-.02-.67-.02-.67s-.07.1-.35.58c-.5.8-1.08.2-1.7.74-.54.47-.4 1.27-.07 1.54.06.05.07.07.04.07-.07 0-.36-.1-.67-.1-.25 0-.52.06-.7.27-.8.9.02 2.1.75 2.1.08 0 .15-.02.23-.05.76-.3.78-.35.78-.35l-.5 2.05s.07-.77-.46-1c-.05-.03-.1-.04-.15-.04-.3 0-.63.4-.6.8.06.44.66.6.88.63.2.05-.75.55-1.6.55-.1 0-.22 0-.33-.02-1.02-.2-1.43-.83-1.64-1.12-.3-.46-.26-.96-.26-.96s.3.68.88.68c.14 0 .3-.04.48-.15.64-.4.1-1.56-.52-1.76-.57-.18-.5-.67-.5-.86 0-.42.27-.98-.25-1-.05 0-.1-.02-.12-.02-.4 0-.4.4-.5.8-.06.18-.3.72-.8.75-.8.05-1.38 1.1-.96 1.53.16.17.34.24.5.24.43 0 .78-.4.78-.4s-.13.66-.32.98c-.2.32-.85.72-1.5.76h-.1c-.9 0-1.74-.88-1.52-.9.23 0 .97-.2 1.16-.9.18-.65-.24-.98-.6-.98-.02 0-.05 0-.08.02-.74.1-.4 1.05-.4 1.05l-.5-.52V5.35l.42-.36s-.3.4.35.83c.12.08.25.12.4.12.73 0 1.7-.9 1.1-2.2-.23-.45-.57-.58-.88-.58-.23 0-.45.07-.58.13.36-.23.75-.76.37-1.3-.46-.64-.8-.23-1.15-.75-.1-.16-.17-.3-.2-.4-.02.1-.08.24-.2.4-.35.52-.67.1-1.14.76-.38.53 0 1.06.37 1.3-.14-.07-.35-.13-.58-.13-.32 0-.66.12-.88.57-.62 1.3.36 2.2 1.1 2.2.13 0 .27-.04.38-.1.66-.45.35-.84.35-.84l.4.36V6.9l-.5.53s.36-.95-.4-1.05c0-.02-.04-.02-.07-.02-.35 0-.77.34-.6.98.2.7.94.9 1.17.9.22.03-.63.9-1.53.9h-.08c-.66-.04-1.32-.44-1.5-.76-.2-.32-.34-.98-.34-.98s.36.4.78.4c.17 0 .35-.07.5-.24.43-.44-.16-1.47-.95-1.52-.52-.04-.75-.58-.8-.77-.1-.4-.1-.78-.5-.78-.04 0-.07 0-.1 0-.53.02-.27.58-.27 1 0 .2.07.7-.5.88-.6.2-1.15 1.35-.5 1.75.17.1.33.15.47.15.57 0 .88-.67.88-.67s.06.5-.25.96c-.2.3-.63.93-1.64 1.12-.1.02-.2.03-.32.03-.85 0-1.8-.5-1.6-.53.22-.05.82-.2.87-.64.04-.4-.3-.8-.6-.8-.04 0-.1 0-.14.04-.52.24-.44 1-.44 1l-.5-2.05s.02.05.77.35c.07.03.15.05.23.05.73 0 1.56-1.2.76-2.1-.2-.2-.46-.27-.7-.27-.32 0-.6.1-.68.1-.03 0-.02-.02.04-.07.32-.27.47-1.07-.07-1.53-.6-.54-1.18.05-1.68-.74-.3-.46-.35-.56-.35-.56s.06.12-.02.66c-.15.97-.65.63-.94 1.37-.24.65.16 1.25.58 1.35.03 0 .05 0 .06 0-.02 0-.1 0-.2 0-.33 0-.97.1-1.12.9-.25 1.23.66 1.83 1.37 1.83.25 0 .48-.08.63-.24.48-.54.45-.85.44-.9l.42 1.97s-.38-.44-.74-.44c-.2 0-.38.13-.5.5-.15.46.4.74.87.74.1 0 .2 0 .28-.04.02 0 .03 0 .03 0 .18 0-.3.9-1.25.9-.66 0-.78-.05-1.04-.3-.26-.26-.57-.87-.57-.87s.25.16.53.16c.2 0 .4-.07.54-.33.2-.37-.1-1.2-.75-1.2-.07 0-.12 0-.2.03-.04 0-.08.02-.13.02-.4 0-.57-.37-.65-.52-.18-.33-.2-.78-.5-.78-.06 0-.12.02-.2.04-.4.12-.2.52-.08.9 0 0 0 0-.02.02 0 0 0 .02.02.03h.02c0 .05.03.1.04.14 0 .04.02.13 0 .2 0 0 0 .02 0 .02 0 .2-.1.46-.4.62-.7.38-.56 1.27 0 1.5.13.03.23.05.32.05.53 0 .6-.67.6-.67s.1.4.08.77c-.03.35-.37.95-1 1.15-.13.05-.28.08-.4.08-.78 0-1.4-.63-1.24-.72.2-.1.96-.03.8-.72-.1-.5-.32-.7-.56-.7-.1 0-.18.03-.27.08-.35.23-.47.47-.5.64l.03-.66-.15-.1-.24-.35s.1.1.36.1c.15 0 .34-.03.6-.14.93-.34 1.72-1.55.46-2.56-.22-.17-.44-.25-.66-.25-.65 0-1.2.62-1.2.62s0 0 .02-.05c.25-.33-.13-1.3-.76-1.64-.3-.17-.75-.2-1.15-.2-.55 0-1.03.07-1.03.07s.9 1.13 1.63 2.33c0 0-.03.02-.04.03-.03.02-.05.04-.06.06-.2.2-.33.48-.33.76 0 .58.5 1.05 1.07 1.05.08 0 .15 0 .24-.02.03 0 .06-.02.08-.02 0 0 .03 0 .04-.02.66 1.3 1.3 2.72 1.3 2.72s.37.7 1.34.7c.08 0 .16-.02.23-.03 1.7-.18 2.17-1.5 2.17-1.5s.52.34 1.3.34c.4 0 .87-.08 1.37-.35 1.12-.6.97-1.6.97-1.6s.38.58 1.98.85c.1.02.2.02.3.02 1.38 0 2.58-1.55 2.58-1.55s1.23 1.23 2.42 1.23c.22 0 .44-.05.65-.15 1.02-.5 1.52-1.33 1.52-1.33s.5.83 1.53 1.33c.2.1.43.15.65.15 1.2 0 2.4-1.23 2.4-1.23s1.22 1.55 2.6 1.55c.1 0 .2 0 .3-.02 1.6-.27 1.97-.84 1.97-.84s-.15 1 .97 1.6c.5.26.97.34 1.37.34.78 0 1.3-.33 1.3-.33s.46 1.32 2.17 1.5c.1 0 .17 0 .24 0 .97 0 1.36-.68 1.36-.68s.6-1.37 1.2-2.7c.1.02.2.05.3.05.06 0 .14 0 .23-.03.02 0 .04-.02.07-.02 0 0 .03 0 .04 0 .43-.17.7-.57.7-1 0-.35-.16-.66-.4-.85.83-1.46 1.77-2.32 1.77-2.32s-.47-.08-1.02-.08M2.44 8.7s-.02 0-.03 0c-.05.03-.1.03-.13.03-.28 0-.5-.23-.5-.5 0-.16.05-.3.15-.38 0 0 0 0 .02-.02 0 0 0 0 .02-.02.1-.06.2-.1.3-.1.3 0 .52.24.52.52 0 .22-.14.4-.34.48m8.03-2.63s-.02 0-.03 0c0 0-.02 0-.03 0-.03.02-.06.03-.1.03-.3 0-.52-.23-.52-.5 0-.16.06-.3.16-.38 0 0 .02-.02.03-.02 0 0 0-.02.02-.02.07-.07.18-.1.3-.1.28 0 .5.23.5.5 0 .23-.13.4-.33.5M20.9 4.4s-.02 0-.03.02c-.04 0-.08 0-.12 0-.28 0-.5-.22-.5-.5 0-.15.05-.28.15-.37 0 0 .02 0 .02-.02 0 0 .02 0 .02-.02.1-.07.2-.1.3-.1.3 0 .53.23.53.5 0 .23-.15.42-.35.5 0 0 0 0-.02 0m9.77 1.1c0-.15.06-.3.15-.38 0 0 .02 0 .03-.02 0 0 .02-.02.02-.02.1-.06.2-.1.3-.1.3 0 .52.23.52.52 0 .22-.15.4-.34.48-.02 0-.03 0-.03 0s-.02 0-.03.02c-.04 0-.08 0-.12 0-.28 0-.5-.22-.5-.5m8.92 2.66c0 .2-.1.35-.24.46-.03.02-.07.04-.12.06-.02 0-.02 0-.03 0-.03 0-.07.02-.1.02-.3 0-.52-.23-.52-.5 0-.16.06-.28.16-.38 0 0 .02 0 .03-.02 0 0 0 0 0-.02.1-.06.2-.1.33-.1.27 0 .5.2.5.47z"/></g></svg>